<svg width="97" height="47" viewBox="0 0 97 47" fill="none" xmlns="http://www.w3.org/2000/svg">
<mask id="path-1-inside-1_7_84" fill="white">
<path fill-rule="evenodd" clip-rule="evenodd" d="M65.7539 0.17659C65.5163 0.271988 65.2627 0.594323 65.1901 0.892953C65.1173 1.19139 64.7757 1.75154 64.4306 2.1376C64.0855 2.52366 63.7264 2.96413 63.6327 3.11626C63.3864 3.51631 61.5294 5.03005 61.285 5.03005C61.1712 5.03005 60.9695 5.16081 60.8366 5.32091C60.4365 5.80218 58.3717 6.76238 56.1852 7.48379C51.1907 9.13141 45.332 9.09177 40.256 7.37654C37.8837 6.57489 37.0071 6.18047 35.9926 5.45906C35.6609 5.22318 35.3098 5.03005 35.2127 5.03005C35.1155 5.03005 34.7898 4.77339 34.4891 4.4598L33.942 3.88974L34.5986 3.61734C34.9596 3.46754 35.4958 3.28529 35.7899 3.21243C36.5019 3.03582 36.4644 2.81627 35.6347 2.30411C35.0857 1.96526 34.6476 1.87822 33.4925 1.87822C32.0529 1.87822 32.0317 1.88579 31.0215 2.7506C29.5339 4.02419 29.1437 5.66501 29.8298 7.76027C30.1206 8.64859 30.4889 8.89748 30.4889 8.20579C30.4889 7.9227 30.6984 7.48418 31.5129 6.06176L31.8679 5.44196L32.5227 5.82783C32.883 6.04 33.2219 6.32891 33.276 6.46977C33.33 6.61044 34.0325 7.08646 34.8369 7.52751C35.6413 7.96836 36.3542 8.41757 36.421 8.5254C36.4877 8.63343 36.7034 8.72164 36.9005 8.72164C37.0974 8.72164 38.077 9.03853 39.0775 9.42596C43.8481 11.2731 52.8516 11.285 57.6335 9.45044C58.5925 9.08244 59.6117 8.72417 59.8984 8.65403C60.1851 8.58408 60.5353 8.41193 60.6765 8.27166C60.8178 8.13118 61.4584 7.72899 62.1003 7.37771C62.7421 7.02623 63.5679 6.46356 63.9354 6.12723C65.1901 4.97896 66.6569 3.37914 66.9008 2.89282C67.0347 2.62567 67.3008 2.1751 67.4918 1.89143C68.3427 0.628324 67.2681 -0.431939 65.7539 0.17659ZM1.24179 22.6776C0.493806 23.5031 1.00504 24.5768 3.53417 27.4922C3.91526 27.9313 4.2269 28.3902 4.2269 28.512C4.2269 28.6339 4.57706 29.0938 5.00503 29.5342C5.433 29.9747 5.78316 30.4157 5.78316 30.514C5.78316 30.6126 5.967 30.8861 6.19149 31.1222C6.41618 31.3581 6.93072 32.0321 7.33515 32.6198C7.73939 33.2075 8.25607 33.8549 8.4829 34.0585C8.70992 34.2622 8.8957 34.5311 8.8957 34.6562C8.8957 34.7813 9.12291 35.0955 9.40051 35.3547C9.67811 35.6137 10.0263 36.0578 10.1742 36.3415C10.322 36.6254 10.5576 36.9751 10.6977 37.1187C10.8377 37.2625 11.1978 37.7045 11.4976 38.101C12.4269 39.3299 13.6211 39.3272 14.3776 38.0948C14.6191 37.7016 15.0161 37.2207 15.2604 37.0258C15.5046 36.8311 15.7044 36.5816 15.7044 36.4715C15.7044 36.3615 16.0983 35.8338 16.5798 35.2989C17.0612 34.764 17.4552 34.2047 17.4552 34.056C17.4552 33.9072 17.5301 33.7856 17.6215 33.7856C17.7129 33.7856 18.1563 33.261 18.6066 32.6198C19.0569 31.9786 19.5016 31.454 19.5948 31.454C19.688 31.454 19.7724 34.6958 19.7824 38.6581C19.8045 47.4174 19.6211 46.8033 22.2134 46.8033C23.7059 46.8033 24.0633 46.7432 24.3309 46.4479C24.8402 45.8858 24.8225 22.9793 24.3125 22.5927C24.0876 22.4221 23.3581 22.3325 22.1629 22.3284C20.0788 22.3212 19.3843 22.5783 18.8889 23.5399C18.7109 23.8853 18.228 24.5519 17.8156 25.0212C17.4034 25.4904 17.0661 25.9501 17.0661 26.0428C17.0661 26.1356 16.8358 26.4696 16.5543 26.7852C16.2728 27.1007 15.7695 27.7485 15.4357 28.2247C13.4719 31.027 12.9087 31.6654 12.7115 31.3128C12.6056 31.1233 12.3166 30.809 12.0691 30.6141C11.8217 30.4194 11.6192 30.1742 11.6192 30.0695C11.6192 29.9648 11.1157 29.2531 10.5006 28.4883C9.88548 27.7234 9.33826 26.9975 9.28476 26.8751C9.18555 26.6482 8.88072 26.2507 6.88597 23.7464L5.75165 22.3222H3.65769C1.87616 22.3222 1.51569 22.3753 1.24179 22.6776ZM27.5038 22.6776C27.0511 23.1773 27.1036 24.1937 27.6195 24.9112C27.8603 25.246 28.1448 25.667 28.2517 25.8465C28.5642 26.3711 30.428 28.9756 30.9159 29.5696C31.1618 29.8688 31.4261 30.2842 31.5034 30.4925C31.6322 30.8403 31.8424 30.8712 34.0747 30.8712C36.6871 30.8712 36.9085 30.782 36.9085 29.7285C36.9085 29.3287 36.051 27.5703 35.7638 27.3812C35.6765 27.3237 35.3596 26.8833 35.0596 26.4024C34.7597 25.9215 34.2652 25.224 33.9605 24.8523C33.6561 24.4806 33.4038 24.0872 33.3999 23.978C33.3894 23.6794 32.5891 22.7905 32.1066 22.5414C31.8728 22.4209 30.8141 22.3222 29.7537 22.3222C28.1329 22.3222 27.7744 22.3788 27.5038 22.6776ZM45.5286 22.6125C45.3004 22.7722 44.8468 23.3186 44.5208 23.8268C44.1947 24.3351 43.437 25.4504 42.8373 26.3052C42.2375 27.1601 41.3464 28.4617 40.8571 29.1977C40.3679 29.9337 39.8045 30.6988 39.6053 30.8978C39.4059 31.0969 39.2429 31.3388 39.2429 31.4356C39.2429 31.5323 38.9365 31.9779 38.562 32.4255C38.1875 32.8732 37.8811 33.3284 37.8811 33.437C37.8811 33.5456 37.509 34.0784 37.0544 34.6208L36.2276 35.6071V40.8932C36.2276 47.4046 36.0455 46.9976 38.9575 46.9976C40.5276 46.9976 40.9993 46.9334 41.1997 46.6923C41.3888 46.4646 41.4662 45.227 41.5037 41.8204L41.5543 37.2537L42.3537 36.1511C42.7933 35.5447 43.323 34.7862 43.531 34.4656C43.7389 34.145 44.3924 33.227 44.9828 32.4255C45.5734 31.624 46.1795 30.706 46.3299 30.3854C46.4803 30.0648 46.8731 29.5457 47.2028 29.2319C47.5325 28.9181 47.8023 28.5134 47.8023 28.3327C47.8023 28.1522 47.9478 27.8843 48.1256 27.7376C48.3035 27.5911 48.8145 26.9027 49.2613 26.2081C49.7082 25.5135 50.2192 24.8251 50.397 24.6786C50.6052 24.5069 50.7203 24.1198 50.7203 23.5925C50.7203 22.9032 50.6417 22.7374 50.2249 22.5478C49.4759 22.2068 46.0408 22.2542 45.5286 22.6125ZM53.4776 22.7718C52.8721 23.4157 52.859 25.9709 53.457 26.8096L53.8593 27.3739L62.3569 27.3676C71.3113 27.3612 71.2146 27.3706 71.6982 26.4638C71.9324 26.0245 72.0032 23.8983 71.8081 23.1717C71.5908 22.3632 71.1337 22.3222 62.3198 22.3222H53.9008L53.4776 22.7718ZM75.7184 22.7897C75.284 23.2236 75.2315 23.4359 75.2315 24.7569C75.2315 26.1389 75.27 26.2765 75.8073 26.8131L76.383 27.388L81.9838 27.3422C88.6298 27.2876 89.2212 27.3948 90.2123 28.8338C91.1513 30.1968 90.9798 31.429 89.7026 32.4931C88.51 33.4871 87.6248 33.5817 79.4626 33.5886C76.2711 33.5911 75.9803 33.6206 75.6206 33.9799C75.2496 34.3504 75.2315 34.6274 75.2315 39.9155C75.2315 47.0576 75.1249 46.8033 78.1186 46.8033C80.4271 46.8033 80.3608 46.9338 80.4839 42.1402L80.5812 38.3515L83.2259 38.2977L85.8705 38.2438L86.387 39.0263C86.671 39.4566 87.1118 40.1366 87.3667 40.5373C88.6516 42.5585 89.5925 44.0466 89.9314 44.593C90.1384 44.9268 90.5496 45.5608 90.8453 46.0016L91.3826 46.8033H93.3383C95.8324 46.8033 96.0466 46.6935 96.0466 45.4141C96.0466 44.5726 95.9312 44.2658 95.2636 43.3322C93.711 41.161 93.1336 40.2828 92.8193 39.6144C92.6434 39.2404 92.2471 38.6472 91.9386 38.2961C91.22 37.4785 91.2231 37.4624 92.2045 36.9347C93.3437 36.3219 93.8845 35.8049 94.7278 34.5214C96.0077 32.5739 96.1845 29.0671 95.1179 26.791C94.6181 25.7247 92.5492 23.488 92.0627 23.488C91.9289 23.488 91.6071 23.3213 91.3478 23.1175C90.5806 22.5148 89.8499 22.4508 82.8675 22.3753L76.2055 22.3032L75.7184 22.7897ZM53.8329 32.1675C53.2222 32.3944 53.0547 32.8912 53.0547 34.4765C53.0547 35.7891 53.1248 36.1536 53.458 36.5766L53.8611 37.0886H61.6352C71.0852 37.0886 70.3695 37.2935 70.3653 34.589C70.3635 33.5594 70.2793 32.5858 70.1779 32.4255C70.0196 32.1753 68.8724 32.1288 62.0591 32.0966C57.6951 32.076 53.9934 32.1078 53.8329 32.1675ZM1.35228 38.3625C0.931506 38.6569 0.919834 38.7632 0.919834 42.324C0.919834 47.0024 0.825291 46.8425 3.54078 46.7628C6.05921 46.6892 5.97108 46.8544 5.97478 42.1999C5.97828 37.9289 6.05843 38.06 3.44877 38.06C2.25744 38.06 1.66178 38.1459 1.35228 38.3625ZM53.4514 42.1769C53.122 42.53 53.0547 42.8608 53.0547 44.1294C53.0547 46.0156 53.3714 46.737 54.271 46.901C54.6186 46.9645 58.5114 46.9902 62.922 46.9583L70.9413 46.9004L71.3842 46.458C72.0507 45.7922 72.1519 43.0637 71.5391 42.2859L71.1181 41.7516H62.483C53.8506 41.7516 53.8478 41.7518 53.4514 42.1769Z"/>
</mask>
<path fill-rule="evenodd" clip-rule="evenodd" d="M65.7539 0.17659C65.5163 0.271988 65.2627 0.594323 65.1901 0.892953C65.1173 1.19139 64.7757 1.75154 64.4306 2.1376C64.0855 2.52366 63.7264 2.96413 63.6327 3.11626C63.3864 3.51631 61.5294 5.03005 61.285 5.03005C61.1712 5.03005 60.9695 5.16081 60.8366 5.32091C60.4365 5.80218 58.3717 6.76238 56.1852 7.48379C51.1907 9.13141 45.332 9.09177 40.256 7.37654C37.8837 6.57489 37.0071 6.18047 35.9926 5.45906C35.6609 5.22318 35.3098 5.03005 35.2127 5.03005C35.1155 5.03005 34.7898 4.77339 34.4891 4.4598L33.942 3.88974L34.5986 3.61734C34.9596 3.46754 35.4958 3.28529 35.7899 3.21243C36.5019 3.03582 36.4644 2.81627 35.6347 2.30411C35.0857 1.96526 34.6476 1.87822 33.4925 1.87822C32.0529 1.87822 32.0317 1.88579 31.0215 2.7506C29.5339 4.02419 29.1437 5.66501 29.8298 7.76027C30.1206 8.64859 30.4889 8.89748 30.4889 8.20579C30.4889 7.9227 30.6984 7.48418 31.5129 6.06176L31.8679 5.44196L32.5227 5.82783C32.883 6.04 33.2219 6.32891 33.276 6.46977C33.33 6.61044 34.0325 7.08646 34.8369 7.52751C35.6413 7.96836 36.3542 8.41757 36.421 8.5254C36.4877 8.63343 36.7034 8.72164 36.9005 8.72164C37.0974 8.72164 38.077 9.03853 39.0775 9.42596C43.8481 11.2731 52.8516 11.285 57.6335 9.45044C58.5925 9.08244 59.6117 8.72417 59.8984 8.65403C60.1851 8.58408 60.5353 8.41193 60.6765 8.27166C60.8178 8.13118 61.4584 7.72899 62.1003 7.37771C62.7421 7.02623 63.5679 6.46356 63.9354 6.12723C65.1901 4.97896 66.6569 3.37914 66.9008 2.89282C67.0347 2.62567 67.3008 2.1751 67.4918 1.89143C68.3427 0.628324 67.2681 -0.431939 65.7539 0.17659ZM1.24179 22.6776C0.493806 23.5031 1.00504 24.5768 3.53417 27.4922C3.91526 27.9313 4.2269 28.3902 4.2269 28.512C4.2269 28.6339 4.57706 29.0938 5.00503 29.5342C5.433 29.9747 5.78316 30.4157 5.78316 30.514C5.78316 30.6126 5.967 30.8861 6.19149 31.1222C6.41618 31.3581 6.93072 32.0321 7.33515 32.6198C7.73939 33.2075 8.25607 33.8549 8.4829 34.0585C8.70992 34.2622 8.8957 34.5311 8.8957 34.6562C8.8957 34.7813 9.12291 35.0955 9.40051 35.3547C9.67811 35.6137 10.0263 36.0578 10.1742 36.3415C10.322 36.6254 10.5576 36.9751 10.6977 37.1187C10.8377 37.2625 11.1978 37.7045 11.4976 38.101C12.4269 39.3299 13.6211 39.3272 14.3776 38.0948C14.6191 37.7016 15.0161 37.2207 15.2604 37.0258C15.5046 36.8311 15.7044 36.5816 15.7044 36.4715C15.7044 36.3615 16.0983 35.8338 16.5798 35.2989C17.0612 34.764 17.4552 34.2047 17.4552 34.056C17.4552 33.9072 17.5301 33.7856 17.6215 33.7856C17.7129 33.7856 18.1563 33.261 18.6066 32.6198C19.0569 31.9786 19.5016 31.454 19.5948 31.454C19.688 31.454 19.7724 34.6958 19.7824 38.6581C19.8045 47.4174 19.6211 46.8033 22.2134 46.8033C23.7059 46.8033 24.0633 46.7432 24.3309 46.4479C24.8402 45.8858 24.8225 22.9793 24.3125 22.5927C24.0876 22.4221 23.3581 22.3325 22.1629 22.3284C20.0788 22.3212 19.3843 22.5783 18.8889 23.5399C18.7109 23.8853 18.228 24.5519 17.8156 25.0212C17.4034 25.4904 17.0661 25.9501 17.0661 26.0428C17.0661 26.1356 16.8358 26.4696 16.5543 26.7852C16.2728 27.1007 15.7695 27.7485 15.4357 28.2247C13.4719 31.027 12.9087 31.6654 12.7115 31.3128C12.6056 31.1233 12.3166 30.809 12.0691 30.6141C11.8217 30.4194 11.6192 30.1742 11.6192 30.0695C11.6192 29.9648 11.1157 29.2531 10.5006 28.4883C9.88548 27.7234 9.33826 26.9975 9.28476 26.8751C9.18555 26.6482 8.88072 26.2507 6.88597 23.7464L5.75165 22.3222H3.65769C1.87616 22.3222 1.51569 22.3753 1.24179 22.6776ZM27.5038 22.6776C27.0511 23.1773 27.1036 24.1937 27.6195 24.9112C27.8603 25.246 28.1448 25.667 28.2517 25.8465C28.5642 26.3711 30.428 28.9756 30.9159 29.5696C31.1618 29.8688 31.4261 30.2842 31.5034 30.4925C31.6322 30.8403 31.8424 30.8712 34.0747 30.8712C36.6871 30.8712 36.9085 30.782 36.9085 29.7285C36.9085 29.3287 36.051 27.5703 35.7638 27.3812C35.6765 27.3237 35.3596 26.8833 35.0596 26.4024C34.7597 25.9215 34.2652 25.224 33.9605 24.8523C33.6561 24.4806 33.4038 24.0872 33.3999 23.978C33.3894 23.6794 32.5891 22.7905 32.1066 22.5414C31.8728 22.4209 30.8141 22.3222 29.7537 22.3222C28.1329 22.3222 27.7744 22.3788 27.5038 22.6776ZM45.5286 22.6125C45.3004 22.7722 44.8468 23.3186 44.5208 23.8268C44.1947 24.3351 43.437 25.4504 42.8373 26.3052C42.2375 27.1601 41.3464 28.4617 40.8571 29.1977C40.3679 29.9337 39.8045 30.6988 39.6053 30.8978C39.4059 31.0969 39.2429 31.3388 39.2429 31.4356C39.2429 31.5323 38.9365 31.9779 38.562 32.4255C38.1875 32.8732 37.8811 33.3284 37.8811 33.437C37.8811 33.5456 37.509 34.0784 37.0544 34.6208L36.2276 35.6071V40.8932C36.2276 47.4046 36.0455 46.9976 38.9575 46.9976C40.5276 46.9976 40.9993 46.9334 41.1997 46.6923C41.3888 46.4646 41.4662 45.227 41.5037 41.8204L41.5543 37.2537L42.3537 36.1511C42.7933 35.5447 43.323 34.7862 43.531 34.4656C43.7389 34.145 44.3924 33.227 44.9828 32.4255C45.5734 31.624 46.1795 30.706 46.3299 30.3854C46.4803 30.0648 46.8731 29.5457 47.2028 29.2319C47.5325 28.9181 47.8023 28.5134 47.8023 28.3327C47.8023 28.1522 47.9478 27.8843 48.1256 27.7376C48.3035 27.5911 48.8145 26.9027 49.2613 26.2081C49.7082 25.5135 50.2192 24.8251 50.397 24.6786C50.6052 24.5069 50.7203 24.1198 50.7203 23.5925C50.7203 22.9032 50.6417 22.7374 50.2249 22.5478C49.4759 22.2068 46.0408 22.2542 45.5286 22.6125ZM53.4776 22.7718C52.8721 23.4157 52.859 25.9709 53.457 26.8096L53.8593 27.3739L62.3569 27.3676C71.3113 27.3612 71.2146 27.3706 71.6982 26.4638C71.9324 26.0245 72.0032 23.8983 71.8081 23.1717C71.5908 22.3632 71.1337 22.3222 62.3198 22.3222H53.9008L53.4776 22.7718ZM75.7184 22.7897C75.284 23.2236 75.2315 23.4359 75.2315 24.7569C75.2315 26.1389 75.27 26.2765 75.8073 26.8131L76.383 27.388L81.9838 27.3422C88.6298 27.2876 89.2212 27.3948 90.2123 28.8338C91.1513 30.1968 90.9798 31.429 89.7026 32.4931C88.51 33.4871 87.6248 33.5817 79.4626 33.5886C76.2711 33.5911 75.9803 33.6206 75.6206 33.9799C75.2496 34.3504 75.2315 34.6274 75.2315 39.9155C75.2315 47.0576 75.1249 46.8033 78.1186 46.8033C80.4271 46.8033 80.3608 46.9338 80.4839 42.1402L80.5812 38.3515L83.2259 38.2977L85.8705 38.2438L86.387 39.0263C86.671 39.4566 87.1118 40.1366 87.3667 40.5373C88.6516 42.5585 89.5925 44.0466 89.9314 44.593C90.1384 44.9268 90.5496 45.5608 90.8453 46.0016L91.3826 46.8033H93.3383C95.8324 46.8033 96.0466 46.6935 96.0466 45.4141C96.0466 44.5726 95.9312 44.2658 95.2636 43.3322C93.711 41.161 93.1336 40.2828 92.8193 39.6144C92.6434 39.2404 92.2471 38.6472 91.9386 38.2961C91.22 37.4785 91.2231 37.4624 92.2045 36.9347C93.3437 36.3219 93.8845 35.8049 94.7278 34.5214C96.0077 32.5739 96.1845 29.0671 95.1179 26.791C94.6181 25.7247 92.5492 23.488 92.0627 23.488C91.9289 23.488 91.6071 23.3213 91.3478 23.1175C90.5806 22.5148 89.8499 22.4508 82.8675 22.3753L76.2055 22.3032L75.7184 22.7897ZM53.8329 32.1675C53.2222 32.3944 53.0547 32.8912 53.0547 34.4765C53.0547 35.7891 53.1248 36.1536 53.458 36.5766L53.8611 37.0886H61.6352C71.0852 37.0886 70.3695 37.2935 70.3653 34.589C70.3635 33.5594 70.2793 32.5858 70.1779 32.4255C70.0196 32.1753 68.8724 32.1288 62.0591 32.0966C57.6951 32.076 53.9934 32.1078 53.8329 32.1675ZM1.35228 38.3625C0.931506 38.6569 0.919834 38.7632 0.919834 42.324C0.919834 47.0024 0.825291 46.8425 3.54078 46.7628C6.05921 46.6892 5.97108 46.8544 5.97478 42.1999C5.97828 37.9289 6.05843 38.06 3.44877 38.06C2.25744 38.06 1.66178 38.1459 1.35228 38.3625ZM53.4514 42.1769C53.122 42.53 53.0547 42.8608 53.0547 44.1294C53.0547 46.0156 53.3714 46.737 54.271 46.901C54.6186 46.9645 58.5114 46.9902 62.922 46.9583L70.9413 46.9004L71.3842 46.458C72.0507 45.7922 72.1519 43.0637 71.5391 42.2859L71.1181 41.7516H62.483C53.8506 41.7516 53.8478 41.7518 53.4514 42.1769Z" fill="url(#paint0_linear_7_84)" stroke="#446AF1" stroke-width="1.94821" mask="url(#path-1-inside-1_7_84)"/>
<defs>
<linearGradient id="paint0_linear_7_84" x1="48.483" y1="0" x2="48.483" y2="47.0026" gradientUnits="userSpaceOnUse">
<stop stop-color="#3AF2F2"/>
<stop offset="1" stop-color="#BA13E4"/>
</linearGradient>
</defs>
</svg>
