<svg width="11" height="16" viewBox="0 0 11 16" fill="none" xmlns="http://www.w3.org/2000/svg">
<path d="M5.23529 15.5425V0.17883H6.21952V15.5425H5.23529ZM7.84591 5.25003C7.7979 4.76592 7.59185 4.38983 7.22776 4.12176C6.86368 3.8537 6.36956 3.71967 5.74541 3.71967C5.32131 3.71967 4.96323 3.77968 4.67116 3.89971C4.37909 4.01574 4.15503 4.17778 3.999 4.38583C3.84696 4.59388 3.77094 4.82993 3.77094 5.09399C3.76294 5.31405 3.80895 5.50609 3.90898 5.67013C4.013 5.83417 4.15503 5.9762 4.33508 6.09623C4.51512 6.21226 4.72317 6.31428 4.95922 6.4023C5.19528 6.48632 5.44734 6.55834 5.7154 6.61835L6.81967 6.88242C7.35579 7.00245 7.84791 7.16248 8.29601 7.36253C8.74412 7.56258 9.13221 7.80864 9.46029 8.10071C9.78837 8.39277 10.0424 8.73686 10.2225 9.13295C10.4065 9.52904 10.5005 9.98315 10.5045 10.4953C10.5005 11.2475 10.3085 11.8996 9.9284 12.4517C9.55231 12.9999 9.00818 13.426 8.29601 13.73C7.58785 14.0301 6.73364 14.1801 5.73341 14.1801C4.74117 14.1801 3.87697 14.0281 3.14079 13.724C2.40862 13.42 1.83649 12.9699 1.42439 12.3737C1.01629 11.7736 0.802241 11.0314 0.782236 10.1472H3.29683C3.32484 10.5593 3.44287 10.9034 3.65091 11.1794C3.86297 11.4515 4.14503 11.6575 4.49712 11.7976C4.8532 11.9336 5.25529 12.0016 5.7034 12.0016C6.1435 12.0016 6.5256 11.9376 6.84967 11.8096C7.17775 11.6816 7.43181 11.5035 7.61185 11.2755C7.7919 11.0474 7.88192 10.7853 7.88192 10.4893C7.88192 10.2132 7.7999 9.98115 7.63586 9.79311C7.47582 9.60506 7.23976 9.44502 6.92769 9.31299C6.61962 9.18096 6.24153 9.06093 5.79342 8.95291L4.45511 8.61683C3.41886 8.36477 2.60067 7.97067 2.00052 7.43455C1.40038 6.89842 1.10231 6.17625 1.10631 5.26803C1.10231 4.52386 1.30036 3.87371 1.70045 3.31757C2.10455 2.76144 2.65868 2.32734 3.36285 2.01527C4.06701 1.70319 4.8672 1.54715 5.76342 1.54715C6.67563 1.54715 7.47182 1.70319 8.15198 2.01527C8.83614 2.32734 9.36827 2.76144 9.74836 3.31757C10.1284 3.87371 10.3245 4.51786 10.3365 5.25003H7.84591Z" fill="#05FF00"/>
</svg>
