<svg width="15" height="15" viewBox="0 0 15 15" fill="none" xmlns="http://www.w3.org/2000/svg">
<path d="M4.26061 5.45811C4.13621 5.34219 3.97167 5.27908 3.80166 5.28208C3.63164 5.28508 3.46943 5.35396 3.34919 5.47419C3.22896 5.59443 3.16008 5.75664 3.15708 5.92666C3.15408 6.09667 3.21719 6.26121 3.33311 6.38561L6.83311 9.88561C6.95513 10.0077 7.12035 10.0769 7.29298 10.078C7.46561 10.0791 7.63173 10.0122 7.75536 9.89174L11.2554 6.47661C11.3773 6.35445 11.4462 6.18917 11.4471 6.01658C11.448 5.84398 11.3809 5.67797 11.2603 5.55449C11.1397 5.43102 10.9754 5.36003 10.8028 5.35689C10.6302 5.35375 10.4634 5.41873 10.3384 5.53774L7.30211 8.49961L4.26061 5.45811Z" fill="#D0D6E0"/>
</svg>
