<svg width="23" height="24" viewBox="0 0 23 24" fill="none" xmlns="http://www.w3.org/2000/svg">
<g clip-path="url(#clip0_131_111)">
<path d="M4.9786 14.5437L4.19519 17.4683L1.33183 17.5288C0.476104 15.9417 -0.00927734 14.1257 -0.00927734 12.196C-0.00927734 10.3299 0.444542 8.57022 1.24897 7.02075H1.24958L3.79878 7.48811L4.91548 10.022C4.68176 10.7034 4.55437 11.4349 4.55437 12.196C4.55446 13.022 4.70409 13.8135 4.9786 14.5437Z" fill="#FBBB00"/>
<path d="M22.3006 10.0938C22.4298 10.7745 22.4972 11.4775 22.4972 12.196C22.4972 13.0016 22.4125 13.7875 22.2512 14.5456C21.7034 17.1251 20.272 19.3776 18.2891 20.9716L18.2885 20.971L15.0776 20.8072L14.6232 17.9704C15.9389 17.1987 16.9672 15.9912 17.5088 14.5456H11.4915V10.0938H17.5966H22.3006Z" fill="#518EF8"/>
<path d="M18.2882 20.971L18.2888 20.9716C16.3604 22.5217 13.9106 23.4491 11.2439 23.4491C6.95837 23.4491 3.23247 21.0538 1.33179 17.5289L4.97856 14.5437C5.92888 17.08 8.37553 18.8854 11.2439 18.8854C12.4767 18.8854 13.6318 18.5522 14.6229 17.9703L18.2882 20.971Z" fill="#28B446"/>
<path d="M18.4268 3.53356L14.7813 6.51812C13.7555 5.87695 12.543 5.50656 11.244 5.50656C8.3107 5.50656 5.8183 7.39485 4.91558 10.0221L1.24964 7.02082H1.24902C3.12189 3.40991 6.89478 0.942871 11.244 0.942871C13.9744 0.942871 16.4779 1.91548 18.4268 3.53356Z" fill="#F14336"/>
</g>
<defs>
<clipPath id="clip0_131_111">
<rect width="22.5063" height="22.5063" fill="white" transform="translate(-0.00927734 0.942871)"/>
</clipPath>
</defs>
</svg>
