<svg width="63" height="64" viewBox="0 0 63 64" fill="none" xmlns="http://www.w3.org/2000/svg">
<rect y="0.964844" width="62.0702" height="62.0702" rx="31.0351" fill="#EADDFF"/>
<path fill-rule="evenodd" clip-rule="evenodd" d="M40.346 25.793C40.346 30.935 36.1775 35.1035 31.0355 35.1035C25.8934 35.1035 21.725 30.935 21.725 25.793C21.725 20.6509 25.8934 16.4824 31.0355 16.4824C36.1775 16.4824 40.346 20.6509 40.346 25.793ZM37.2425 25.793C37.2425 29.221 34.4635 32 31.0355 32C27.6074 32 24.8285 29.221 24.8285 25.793C24.8285 22.3649 27.6074 19.5859 31.0355 19.5859C34.4635 19.5859 37.2425 22.3649 37.2425 25.793Z" fill="#4F378A"/>
<path d="M31.0355 39.7587C20.9888 39.7587 12.4288 45.6995 9.16809 54.0225C9.96243 54.8113 10.7992 55.5574 11.6747 56.2571C14.1028 48.6157 21.7199 42.8623 31.0355 42.8623C40.3511 42.8623 47.9682 48.6157 50.3963 56.2571C51.2718 55.5574 52.1086 54.8113 52.9029 54.0226C49.6422 45.6995 41.0822 39.7587 31.0355 39.7587Z" fill="#4F378A"/>
</svg>
